<svg width="39" height="38" viewBox="0 0 39 38" fill="none" xmlns="http://www.w3.org/2000/svg">
<path d="M18.4359 0.656711C18.9337 -0.118253 20.0663 -0.118253 20.5641 0.656712L26.5634 9.99695C26.7346 10.2636 26.9998 10.4562 27.3063 10.5367L38.0433 13.3561C38.9341 13.59 39.2841 14.6672 38.7009 15.3801L31.6717 23.9721C31.471 24.2173 31.3698 24.529 31.3879 24.8454L32.0245 35.9281C32.0773 36.8476 31.1609 37.5134 30.3027 37.179L19.9591 33.1489C19.6639 33.0338 19.3361 33.0338 19.0409 33.1489L8.69729 37.179C7.83908 37.5134 6.92271 36.8476 6.97552 35.9281L7.61207 24.8454C7.63024 24.529 7.52897 24.2173 7.3283 23.9721L0.299082 15.3801C-0.284136 14.6672 0.0658867 13.59 0.956739 13.3561L11.6937 10.5367C12.0002 10.4562 12.2654 10.2636 12.4366 9.99695L18.4359 0.656711Z" fill="#FF6060"/>
</svg>
